<svg width="589" height="482" viewBox="0 0 589 482" fill="none" xmlns="http://www.w3.org/2000/svg">
<path d="M471.889 92.2141C455.506 69.8291 442.824 43.1071 423.243 24.8391C392.485 -3.91496 348.22 -6.71896 312.256 11.345C276.292 29.4081 248.276 65.8191 229.81 107.048C220.096 128.74 212.467 152.402 198.233 170.128C186.201 185.104 170.387 194.659 155.392 205.066C131.217 221.799 107.936 242.018 92.2906 269.761C76.6471 297.504 69.6527 333.941 79.653 365.207C86.3967 386.304 99.9803 403.09 113.896 418.288C130.272 436.157 147.873 452.889 168.186 463.536C193.617 476.782 221.847 479.63 249.531 480.978C298.609 483.358 347.767 481.579 396.637 475.655C436.656 470.811 477.886 462.542 511.369 435.775C558.272 398.291 582.454 329.612 587.898 262.265C590.114 235.329 589.553 207.337 580.896 182.345C560.192 122.565 504.33 136.547 471.888 92.2141H471.889Z" fill="#EFF1F7"/>
<path d="M178.317 202.334C178.317 202.334 161.717 199.387 157.067 211.003C152.417 222.619 157.067 262.736 157.067 262.736L219 307L178.317 202.334Z" fill="#3F3D56"/>
<path d="M256.202 379.727L231.647 386.735C228.079 387.745 224.337 385.783 223.275 382.349C222.228 378.911 224.262 375.303 227.825 374.28L252.347 367.266C255.912 366.256 259.654 368.213 260.719 371.645C261.777 375.078 259.759 378.69 256.202 379.727Z" fill="#2BD0D0"/>
<path d="M255 406C261.075 406 266 401.075 266 395C266 388.925 261.075 384 255 384C248.925 384 244 388.925 244 395C244 401.075 248.925 406 255 406Z" fill="#25233A"/>
<path d="M253.5 403C256.538 403 259 400.538 259 397.5C259 394.462 256.538 392 253.5 392C250.462 392 248 394.462 248 397.5C248 400.538 250.462 403 253.5 403Z" fill="#3F3D56"/>
<path d="M210 395C216.075 395 221 390.075 221 384C221 377.925 216.075 373 210 373C203.925 373 199 377.925 199 384C199 390.075 203.925 395 210 395Z" fill="#25233A"/>
<path d="M214 384.5C214 385.959 213.421 387.358 212.389 388.389C211.358 389.421 209.959 390 208.5 390C207.041 390 205.642 389.421 204.611 388.389C203.579 387.358 203 385.959 203 384.5C203 383.041 203.579 381.642 204.611 380.611C205.642 379.579 207.041 379 208.5 379C209.959 379 211.358 379.579 212.389 380.611C213.421 381.642 214 383.041 214 384.5Z" fill="url(#paint0_linear_85_29)"/>
<path d="M207 410C213.075 410 218 405.075 218 399C218 392.925 213.075 388 207 388C200.925 388 196 392.925 196 399C196 405.075 200.925 410 207 410Z" fill="#25233A"/>
<path d="M216 399.5C216 400.959 215.421 402.358 214.389 403.389C213.358 404.421 211.959 405 210.5 405C209.041 405 207.642 404.421 206.611 403.389C205.579 402.358 205 400.959 205 399.5C205 398.041 205.579 396.642 206.611 395.611C207.642 394.579 209.041 394 210.5 394C211.959 394 213.358 394.579 214.389 395.611C215.421 396.642 216 398.041 216 399.5Z" fill="#3F3D56"/>
<path d="M257.085 390.874L206.298 380.828C202.724 380.111 200.414 376.698 201.13 373.192C201.862 369.692 205.34 367.428 208.915 368.126L259.702 378.153C263.276 378.87 265.586 382.283 264.87 385.79C264.147 389.297 260.666 391.571 257.085 390.874Z" fill="#2BD0D0"/>
<path d="M226 310H240V369C240 372.866 236.867 376 233.003 376C231.147 375.999 229.367 375.261 228.056 373.949C226.744 372.636 226.007 370.856 226.007 369V310H226Z" fill="#2BD0D0"/>
<path d="M231.187 386.708L206.65 393.733C203.082 394.747 199.336 392.784 198.275 389.345C197.228 385.905 199.262 382.295 202.823 381.271L227.36 374.266C230.924 373.256 234.664 375.214 235.728 378.647C236.767 382.082 234.738 385.681 231.187 386.707V386.708Z" fill="#2BD0D0"/>
<path d="M236 386.26L232.875 386.811C231.926 386.976 230.962 387.033 230 386.983L231.305 386.755C232.169 386.611 233.012 386.357 233.812 386L236 386.26Z" fill="url(#paint1_linear_85_29)"/>
<path d="M261 372.738C261.003 374.282 260.489 375.782 259.54 377L239 372.65C239.52 371.907 239.892 371.071 240.098 370.188L252.752 366.265C253.567 366.019 254.424 365.944 255.269 366.043C256.114 366.143 256.93 366.415 257.665 366.844C259.165 367.711 260.274 369.168 260.748 370.892C260.912 371.492 260.997 372.114 261 372.738Z" fill="url(#paint2_linear_85_29)"/>
<path opacity="0.31" d="M225.22 371.103C225.074 370.589 225 370.057 225 369.523V311H230.943V374.07C230.884 374.38 230.903 374.697 231 375C230.084 374.682 229.124 374.51 228.155 374.489C227.465 374.449 226.77 374.449 226.079 374.489L226.504 374.389C226.766 374.349 225.563 372.298 225.22 371.103Z" fill="url(#paint3_linear_85_29)"/>
<path opacity="0.31" d="M262.289 389.8C261.319 390.323 260.228 390.597 259.119 390.596C258.673 390.595 258.227 390.551 257.789 390.466L235.382 386.06L233.515 385.697C232.874 386.176 232.152 386.534 231.382 386.752L230.272 387.069L207.247 393.735C203.733 394.742 200.045 392.792 199 389.373C200.997 391.178 204.029 391.346 206.223 389.774C209.034 387.878 220.225 385.031 226.564 383.517C229.56 382.819 231.852 380.467 232.412 377.517C232.428 377.344 232.454 377.171 232.492 377C233.548 378.113 235.489 379.362 238.997 380.423C247.637 383.012 261.664 384.727 261.664 384.727C261.664 384.727 264.196 387.147 262.289 389.8Z" fill="url(#paint4_linear_85_29)"/>
<path d="M264 388C263.464 388.786 262.786 389.464 262 390C262.675 389.341 263.341 388.675 264 388Z" fill="url(#paint5_linear_85_29)"/>
<path d="M226.3 370.559C226.579 371.734 227.166 372.815 228 373.689C227.79 373.728 227.575 373.781 227.359 373.84L206.088 380C202.817 379.187 200.662 376.135 201.044 372.854C201.425 369.574 204.225 367.073 207.6 367C208.053 367.001 208.505 367.045 208.95 367.132L226.3 370.559Z" fill="url(#paint6_linear_85_29)"/>
<path d="M259 89.407C259 89.407 258.724 68.602 241.925 70.397C225.125 72.19 226.414 65.302 219.238 66.058C212.063 66.815 203.728 73.844 206.121 82.526C208.516 91.208 199.789 93.149 194.057 99.736C188.324 106.323 195.406 111.712 205.063 118.152C214.72 124.592 204.463 122.925 210.188 133.107C215.914 143.288 235.295 130.282 235.295 130.282L259 89.407Z" fill="#503164"/>
<path d="M122.664 434.601L134.394 435V341.255C134.394 341.255 134.984 317.014 157.846 314.582C180.707 312.151 388.042 282.116 388.042 282.116C388.042 282.116 396.26 281.246 400.993 297.017C405.726 312.788 410.333 374.804 410.333 374.804L473.973 383.381C473.973 383.381 475.653 273.831 452.671 267.786C429.69 261.741 129.149 292.546 129.149 292.546C129.149 292.546 106.859 408.898 122.664 434.601Z" fill="#2BD0D0"/>
<path opacity="0.197" d="M122.664 434.601L134.394 435V341.255C134.394 341.255 134.984 317.014 157.846 314.582C180.707 312.151 388.042 282.116 388.042 282.116C388.042 282.116 396.26 281.246 400.993 297.017C405.726 312.788 410.333 374.804 410.333 374.804L473.973 383.381C473.973 383.381 475.653 273.831 452.671 267.786C429.69 261.741 129.149 292.546 129.149 292.546C129.149 292.546 106.859 408.898 122.664 434.601Z" fill="url(#paint7_linear_85_29)"/>
<path d="M62 303.784C62 303.784 67.744 272.028 108.144 263.705L393.327 231.062C393.327 231.062 421.323 229.902 434.131 237.649C446.939 245.395 465.219 251.817 472.714 286.872C480.209 321.928 482 381.814 482 381.814L474.91 382.914C474.91 382.914 464.562 274.474 453.598 267.608C442.635 260.743 146.196 302.863 146.196 302.863C146.196 302.863 125.635 306.951 123.844 337.395C122.054 367.838 123.844 434 123.844 434L62 409.057V303.784Z" fill="#2BD0D0"/>
<path opacity="0.19" d="M355.426 243.844C340.664 241.944 325.782 240.568 310.907 241.124C299.727 241.557 288.621 243.09 277.535 244.617L179.76 258.12C178.1 258.35 176.21 258.723 175.38 260.164C173.788 262.916 177.53 265.628 180.562 266.676C213.072 277.932 247.805 289.332 281.27 281.306C296.57 277.637 310.781 270.018 326.3 267.371C341.818 264.724 357.748 267.161 373.233 264.665C387.79 262.32 401.65 255.656 416.405 255.591C420.93 255.591 425.588 256.168 429.88 254.752C434.173 253.337 437.968 249.013 436.78 244.702C422.927 244.224 407.376 241.695 393.788 244.44C380.339 247.152 368.894 243.844 355.426 243.844Z" fill="url(#paint8_linear_85_29)"/>
<path d="M267 259.38L267.57 261.494C267.57 261.494 284.451 271.667 284.345 271.995C284.239 272.323 354.369 255.755 354.369 255.755L356 251L267 259.38Z" fill="#2BD0D0"/>
<path d="M267 259.38L267.57 261.494C267.57 261.494 284.451 271.667 284.345 271.995C284.239 272.323 354.369 255.755 354.369 255.755L356 251L267 259.38Z" fill="url(#paint9_linear_85_29)"/>
<path d="M268 259.364L330.107 246L356 251.054L285.442 268L268 259.364Z" fill="#2BD0D0"/>
<path d="M268 259.364L330.107 246L356 251.054L285.442 268L268 259.364Z" fill="url(#paint10_linear_85_29)"/>
<path d="M247.832 270.484L262.289 270.996C262.289 270.996 265.961 271.224 266.909 268.279C267.859 265.334 261.019 259.119 260.287 259.002C259.554 258.884 240.527 264.222 243.27 269.558L247.832 270.484Z" fill="#2BD0D0"/>
<path d="M247.832 270.484L262.289 270.996C262.289 270.996 265.961 271.224 266.909 268.279C267.859 265.334 261.019 259.119 260.287 259.002C259.554 258.884 240.527 264.222 243.27 269.558L247.832 270.484Z" fill="url(#paint11_linear_85_29)"/>
<path d="M79 416.056L71.942 437.733C51.469 445.084 34.062 437.733 34.062 437.733L29 415C29 415 54.535 423.56 79 416.056Z" fill="#2BD0D0"/>
<path d="M79 416.056L71.942 437.733C51.469 445.084 34.062 437.733 34.062 437.733L29 415C29 415 54.535 423.56 79 416.056Z" fill="url(#paint12_linear_85_29)"/>
<path d="M87 396L84.716 412.943L78.93 415.951C54.282 423.371 28.515 414.913 28.515 414.913L24.072 411.63L22 396H87Z" fill="#2BD0D0"/>
<path d="M87 396L84.716 412.943L78.93 415.951C54.282 423.371 28.515 414.913 28.515 414.913L24.072 411.63L22 396H87Z" fill="url(#paint13_linear_85_29)"/>
<path d="M54.5 401C72.4493 401 87 398.314 87 395C87 391.686 72.4493 389 54.5 389C36.5507 389 22 391.686 22 395C22 398.314 36.5507 401 54.5 401Z" fill="#2BD0D0"/>
<path d="M54.5 401C72.4493 401 87 398.314 87 395C87 391.686 72.4493 389 54.5 389C36.5507 389 22 391.686 22 395C22 398.314 36.5507 401 54.5 401Z" fill="url(#paint14_linear_85_29)"/>
<path d="M39.6413 265.03C36.4593 263.515 33.0383 262.372 30.2853 260.16C24.7383 255.66 23.3323 247.912 21.5953 240.962C19.8593 234.011 16.4983 226.369 9.65132 224.375C7.08932 223.638 4.08432 223.93 2.13632 225.765C0.0833185 227.698 -0.333681 230.875 0.228319 233.679C0.789319 236.483 2.15632 238.995 3.21332 241.653C5.68072 247.831 6.43122 254.561 5.38532 261.13C4.52032 266.519 2.45332 271.981 3.78032 277.264C6.03232 286.228 17.2503 291.484 17.5603 300.721C17.7723 306.954 12.6753 312.722 13.8303 318.856C14.6823 323.394 18.8353 326.936 19.0603 331.548C19.3103 336.778 14.3983 341.203 14.6363 346.433C14.8733 351.663 20.0633 355.158 23.4513 359.272C26.2935 362.733 27.9814 366.996 28.2783 371.465C28.4563 374.256 28.0993 377.147 29.0043 379.792C29.6643 381.725 30.9843 383.367 32.0083 385.108C33.1383 386.988 33.9893 389.022 35.3493 390.763C37.0513 392.929 39.3669 394.532 41.9938 395.362C44.6208 396.191 47.4369 396.21 50.0743 395.414C51.1243 388.464 50.2063 381.374 50.4973 374.349C51.0713 360.74 56.1883 347.025 52.9133 333.814C51.7123 328.97 49.4013 324.371 48.9913 319.401C48.6283 314.961 49.8033 310.563 50.6223 306.184C52.3123 297.14 52.2863 287.79 51.5923 278.646C51.0453 271.39 45.9733 268.047 39.6413 265.03Z" fill="#2BD0D0"/>
<path d="M59.7519 300.767C59.6989 306.829 61.0819 313.097 59.1399 318.852C57.6699 323.214 54.4379 326.786 52.7689 331.075C48.9189 340.974 54.0989 352.075 53.0419 362.645C52.6019 366.999 51.1059 371.182 50.1619 375.458C48.9891 380.871 48.7017 386.438 49.3109 391.943C49.249 392.946 49.5513 393.937 50.1622 394.735C50.7731 395.533 51.6515 396.083 52.6359 396.285C55.8946 397.526 59.2699 398.436 62.7109 399C61.5475 392.591 62.7731 385.977 66.1559 380.41C71.4299 371.78 81.6779 365.964 83.5859 356.051C84.8759 349.339 81.8709 342.527 82.0839 335.696C82.2374 331.149 83.804 326.763 86.5659 323.148C89.0459 319.921 92.4049 317.425 94.7129 314.078C100.259 306.012 98.5299 295.23 96.8809 285.584C95.2309 275.937 94.2739 264.836 100.791 257.527C102.853 255.217 105.539 253.483 107.408 251.014C111.571 245.51 110.52 237.031 105.678 232.112C100.838 227.192 93.0429 225.832 86.4599 227.996C83.6836 228.812 81.2323 230.477 79.4499 232.756C76.1249 237.47 77.4549 243.91 78.8649 249.513C80.0949 254.38 81.0859 259.996 79.4039 264.903C78.1469 268.554 74.9609 270.533 72.2539 273.075C68.4188 276.616 65.3355 280.893 63.1877 285.65C61.0398 290.408 59.8714 295.549 59.7519 300.767Z" fill="#2BD0D0"/>
<path d="M53.0619 354.522C52.1239 361.115 50.7699 367.761 50.4919 374.373V375.038C50.4775 375.202 50.4401 375.363 50.3809 375.517C49.2091 380.935 48.9167 386.507 49.5149 392.018C49.5509 392.911 49.7759 393.786 50.1749 394.584C50.1429 394.863 50.1029 395.135 50.0639 395.414C47.4256 396.21 44.6086 396.191 41.9808 395.362C39.3531 394.532 37.0366 392.929 35.3339 390.762C34.0139 389.021 33.1209 386.987 31.9919 385.107C30.9349 383.359 29.6469 381.717 28.9869 379.79C28.0819 377.131 28.4379 374.254 28.2599 371.463C27.9633 366.993 26.275 362.729 23.4319 359.267C20.0429 355.18 14.8449 351.751 14.6139 346.434C14.3829 341.117 19.2899 336.778 19.0389 331.547C18.8149 326.935 14.6599 323.393 13.8089 318.854C12.6519 312.719 17.7709 306.951 17.5399 300.717C17.2299 291.479 6.00787 286.222 3.75487 277.257C2.43487 271.973 4.49487 266.51 5.35987 261.121C6.41099 254.559 5.66952 247.836 3.21387 241.661C2.15687 239.003 0.789871 236.498 0.227871 233.686C-0.333129 230.876 0.0828714 227.705 2.13687 225.764C4.11887 223.93 7.09087 223.638 9.65387 224.375C16.5099 226.369 19.8579 234.039 21.6019 240.99C23.3459 247.942 24.7459 255.684 30.2939 260.19C33.0359 262.417 36.4699 263.546 39.6539 265.062C45.9939 268.079 51.0669 271.422 51.6089 278.612C52.2689 287.757 52.3289 297.108 50.6389 306.153C49.8189 310.533 48.6569 314.933 49.0069 319.372C49.3569 323.812 51.2789 328.012 52.5339 332.318C52.6729 332.803 52.8109 333.295 52.9299 333.787C54.5949 340.626 54.0599 347.544 53.0619 354.522Z" fill="#30C59B"/>
<path d="M49.7175 394C49.4153 393.204 49.2457 392.363 49.2155 391.512C48.7855 386.152 48.9995 380.732 49.8525 375.465C49.8755 375.31 49.9045 375.155 49.9325 375C49.7615 381.346 50.3065 387.744 49.7175 394Z" fill="url(#paint15_linear_85_29)"/>
<path d="M107.393 251.014C105.522 253.484 102.831 255.216 100.766 257.527C94.2391 264.83 95.1981 275.937 96.8501 285.584C98.5011 295.23 100.233 306.012 94.6781 314.079C92.3681 317.399 89.0041 319.921 86.5191 323.148C83.7531 326.762 82.1835 331.148 82.0291 335.696C81.8171 342.527 84.8271 349.339 83.5351 356.051C81.6241 365.964 71.3601 371.793 66.0781 380.411C62.7033 385.981 61.4853 392.593 62.6541 399C59.2167 398.436 55.845 397.526 52.5901 396.285C51.7006 396.022 50.8936 395.534 50.2461 394.87C50.1541 394.762 50.0715 394.647 49.9991 394.525C49.5864 393.735 49.348 392.865 49.3001 391.975C48.7011 386.469 49.0001 380.902 50.1861 375.491C50.2191 375.331 50.2591 375.172 50.2991 375.013C51.2451 370.903 52.6441 366.873 53.0701 362.677C53.2966 359.957 53.243 357.22 52.9101 354.511C53.9161 347.54 54.4551 340.629 52.7571 333.843C52.6371 333.353 52.4971 332.861 52.3571 332.376C52.4841 331.951 52.6301 331.526 52.7971 331.108C54.4691 326.819 57.7061 323.248 59.1771 318.885C61.1161 313.129 59.7371 306.862 59.7901 300.8C59.8771 290.33 64.6131 280.22 72.2191 273.075C74.9291 270.533 78.1201 268.555 79.3791 264.903C81.0641 259.996 80.0451 254.38 78.8391 249.513C77.4211 243.91 76.0751 237.47 79.4261 232.756C81.0911 230.419 83.7161 228.899 86.4461 227.996C93.0131 225.831 100.853 227.192 105.695 232.112C110.537 237.032 111.563 245.542 107.393 251.014Z" fill="#30C59B"/>
<path d="M225.573 146.146C225.573 146.146 197.756 150.446 184.889 181.123C172.022 211.8 178.713 249.806 178.938 253.15C179.163 256.494 218.366 271 229.573 271C240.781 271 243.115 259.771 243.115 259.771L223.312 251.338L283.482 244.389H294.286L288.335 254.421C288.335 254.421 300.078 255.651 307.927 255.932C315.775 256.213 321.105 240.692 321.984 232.973C322.864 225.256 287.317 157.515 282.007 153.503C276.697 149.49 262.29 139.686 225.573 146.146Z" fill="#2BD0D0"/>
<path d="M258.392 88.776C258.392 88.776 263.424 91.606 262.972 100.761C262.519 109.916 259.682 123.693 256.819 127.261C253.955 130.831 243.939 132.229 243.939 132.229C243.939 132.229 249.403 145.206 253.469 148.555C257.535 151.904 249.383 164.242 241.454 160.194C233.526 156.145 224.334 145.978 224.334 145.978C224.334 145.978 230.946 133.733 228.71 127.288C226.475 120.843 217.938 98.224 224.334 92.046C230.73 85.866 244.52 77.011 258.392 88.776Z" fill="url(#paint16_linear_85_29)"/>
<path opacity="0.25" d="M214.334 190L210 244.055L223.238 251L234 249.122L220.572 232.618L214.334 190ZM284 187C284 187 301.909 229.077 293.97 244L287.854 242.84L284 187Z" fill="white"/>
<path d="M235.522 258.045C235.522 258.045 228.756 263.82 231.776 268.312C234.796 272.803 238.401 272.675 241.407 270.667C244.413 268.658 250.318 263.891 257.353 266.079C264.388 268.267 266.097 269.659 266.097 269.659C266.097 269.659 269.802 267.343 268.841 265.02C267.879 262.697 260.521 255.17 258.389 254.195C256.257 253.22 247.406 256.216 247.406 256.216C247.406 256.216 240.903 254.457 235.522 258.045Z" fill="url(#paint17_linear_85_29)"/>
<path d="M295.191 245.598C295.191 245.598 288.806 246.357 287.193 250.555C285.58 254.753 285 255.265 285 255.265C285 255.265 288.606 255.955 290.106 254.001C291.606 252.047 293.165 252.868 293.165 252.868L292.718 255.375C292.718 255.375 302.516 256.852 306.942 255.265C311.367 253.676 313.267 251.812 313.267 251.812L315 247.572C315 247.572 310.82 244.542 307.668 244.072C304.516 243.602 295.191 245.598 295.191 245.598Z" fill="url(#paint18_linear_85_29)"/>
<path d="M328.893 290C328.893 290 350.827 306.687 348.877 329.259C346.928 351.831 344.064 385.346 344.064 385.346C344.064 385.346 335.218 389.068 329.357 385.346C323.495 381.624 319.946 330.696 317.042 325.833C314.138 320.969 296.667 299.043 278 297.154L328.893 290Z" fill="#25233A"/>
<path d="M219 306.058C219 306.058 229.444 315.953 248.062 319.06C266.681 322.167 275.359 324.76 281.049 340.665C286.739 356.57 292.197 390.802 293.984 394.628C295.77 398.454 303.366 396.502 303.366 396.502C303.366 396.502 307.662 391.607 307.662 364.388C307.662 326.442 310.317 318.664 300.749 309.132C291.181 299.599 282.477 297 282.477 297L219 306.058Z" fill="#3F3D56"/>
<path d="M294 396L295.82 410.197H299.228C299.228 410.197 321.176 411.384 321.864 410.872C322.552 410.359 320.807 399.629 312.492 399.932C304.176 400.236 303.631 397.909 303.631 397.909L294 396ZM331 386.156L334.518 400L372.955 394.788C372.955 394.788 374.308 385.695 362.132 386.597C358.918 386.831 356.524 389.062 352.661 389.082C348.798 389.102 345.098 387.539 343.15 385L331 386.156Z" fill="#25233A"/>
<path d="M461.804 212.337L319.561 219.991C316.121 220.172 313.185 217.521 313 214.065V112.473C313.003 108.372 316.267 105.025 320.348 104.938L462.009 102.001C462.91 101.983 463.805 102.143 464.643 102.472C465.482 102.801 466.247 103.292 466.895 103.918C468.207 105.185 468.964 106.921 469 108.745V204.716C468.995 208.772 465.836 212.118 461.804 212.337Z" fill="#2BD0D0"/>
<path d="M469.804 212.337L327.554 219.992C324.114 220.169 321.182 217.514 321 214.058V112.473C320.996 108.371 324.26 105.021 328.342 104.938L470.022 102.001C473.799 101.931 476.92 104.944 477 108.739V204.716C476.995 208.773 473.836 212.119 469.804 212.337Z" fill="#2BD0D0"/>
<path d="M469.804 212.337L327.554 219.992C324.114 220.169 321.182 217.514 321 214.058V112.473C320.996 108.371 324.26 105.021 328.342 104.938L470.022 102.001C473.799 101.931 476.92 104.944 477 108.739V204.716C476.995 208.773 473.836 212.119 469.804 212.337Z" fill="url(#paint19_linear_85_29)"/>
<path d="M427.773 251.138L391.478 255C391.478 255 380.425 252.77 381.023 251.138C381.622 249.505 393.179 247.933 393.179 247.933V182.129C393.079 181.983 391.558 180.045 387.39 178.81C386.583 178.571 385.762 178.38 384.931 178.24C384.218 178.136 383.523 177.925 382.871 177.616C380.392 176.336 383.131 174.106 386.978 174.006C387.581 173.985 388.184 174.02 388.78 174.112H416.693C416.693 174.112 427.261 177.085 427.773 191.923C428.284 206.762 427.773 251.138 427.773 251.138Z" fill="#3A3054"/>
<path d="M398 251.277L391.322 255C391.322 255 380.434 252.77 381.023 251.137C381.613 249.505 393.018 247.932 393.018 247.932V182.123C392.88 181.971 391.211 180.225 387.315 178.805C385.866 178.288 384.377 177.888 382.863 177.61C380.421 176.33 383.118 174.1 386.909 174C390.137 174.445 396.494 178.028 396.907 180.073C397.319 182.117 398 251.277 398 251.277Z" fill="#51466B"/>
<path d="M263 389C262.119 390.001 261.71 390.37 262.23 389.547C262.5 389.388 262.757 389.205 263 389Z" fill="url(#paint20_linear_85_29)"/>
<defs>
<linearGradient id="paint0_linear_85_29" x1="203" y1="929" x2="1303" y2="929" gradientUnits="userSpaceOnUse">
<stop stop-color="#183866"/>
<stop offset="1" stop-color="#1A7FC1"/>
</linearGradient>
<linearGradient id="paint1_linear_85_29" x1="229.22" y1="436.085" x2="830" y2="436.085" gradientUnits="userSpaceOnUse">
<stop/>
<stop offset="0.99" stop-opacity="0"/>
</linearGradient>
<linearGradient id="paint2_linear_85_29" x1="4112.59" y1="-5859.98" x2="6669.86" y2="-4663.98" gradientUnits="userSpaceOnUse">
<stop/>
<stop offset="0.99" stop-opacity="0"/>
</linearGradient>
<linearGradient id="paint3_linear_85_29" x1="578.568" y1="-16200.9" x2="227.434" y2="-16296.5" gradientUnits="userSpaceOnUse">
<stop/>
<stop offset="0.99" stop-opacity="0"/>
</linearGradient>
<linearGradient id="paint4_linear_85_29" x1="10189.4" y1="-698.644" x2="1566.76" y2="-3515.31" gradientUnits="userSpaceOnUse">
<stop/>
<stop offset="0.99" stop-opacity="0"/>
</linearGradient>
<linearGradient id="paint5_linear_85_29" x1="4984.09" y1="-32781.8" x2="4587.3" y2="-32907.1" gradientUnits="userSpaceOnUse">
<stop/>
<stop offset="0.99" stop-opacity="0"/>
</linearGradient>
<linearGradient id="paint6_linear_85_29" x1="6718.5" y1="-5171.68" x2="3944.02" y2="-4434.04" gradientUnits="userSpaceOnUse">
<stop/>
<stop offset="0.99" stop-opacity="0"/>
</linearGradient>
<linearGradient id="paint7_linear_85_29" x1="38262.5" y1="4047.34" x2="-12579.4" y2="1599.87" gradientUnits="userSpaceOnUse">
<stop/>
<stop offset="1" stop-opacity="0"/>
</linearGradient>
<linearGradient id="paint8_linear_85_29" x1="3887.28" y1="-1536.43" x2="30087" y2="-1536.43" gradientUnits="userSpaceOnUse">
<stop stop-color="#183866"/>
<stop offset="1" stop-color="#1A7FC1"/>
</linearGradient>
<linearGradient id="paint9_linear_85_29" x1="3861.35" y1="1080.81" x2="4177.25" y2="2308.26" gradientUnits="userSpaceOnUse">
<stop/>
<stop offset="0.99" stop-opacity="0"/>
</linearGradient>
<linearGradient id="paint10_linear_85_29" x1="-834.728" y1="1234.31" x2="7698.74" y2="3964.82" gradientUnits="userSpaceOnUse">
<stop/>
<stop offset="0.99" stop-opacity="0"/>
</linearGradient>
<linearGradient id="paint11_linear_85_29" x1="1531.82" y1="766.252" x2="1468.94" y2="1249.15" gradientUnits="userSpaceOnUse">
<stop/>
<stop offset="0.99" stop-opacity="0"/>
</linearGradient>
<linearGradient id="paint12_linear_85_29" x1="9575.3" y1="-8249.43" x2="5141.52" y2="-8420.59" gradientUnits="userSpaceOnUse">
<stop/>
<stop offset="0.99" stop-opacity="0"/>
</linearGradient>
<linearGradient id="paint13_linear_85_29" x1="10979.6" y1="-2507.75" x2="7275.24" y2="-2634.37" gradientUnits="userSpaceOnUse">
<stop/>
<stop offset="0.99" stop-opacity="0"/>
</linearGradient>
<linearGradient id="paint14_linear_85_29" x1="3726.29" y1="912.416" x2="3591.12" y2="1580.63" gradientUnits="userSpaceOnUse">
<stop/>
<stop offset="0.99" stop-opacity="0"/>
</linearGradient>
<linearGradient id="paint15_linear_85_29" x1="107.054" y1="-27622.8" x2="-203.756" y2="-25709.2" gradientUnits="userSpaceOnUse">
<stop/>
<stop offset="0.99" stop-opacity="0"/>
</linearGradient>
<linearGradient id="paint16_linear_85_29" x1="220.36" y1="3982.49" x2="4321.91" y2="3982.49" gradientUnits="userSpaceOnUse">
<stop stop-color="#ECC4D7"/>
<stop offset="0.42" stop-color="#EFD4D1"/>
<stop offset="1" stop-color="#F2EAC9"/>
</linearGradient>
<linearGradient id="paint17_linear_85_29" x1="3994.26" y1="-2685.18" x2="7794.22" y2="-2685.18" gradientUnits="userSpaceOnUse">
<stop stop-color="#ECC4D7"/>
<stop offset="0.42" stop-color="#EFD4D1"/>
<stop offset="1" stop-color="#F2EAC9"/>
</linearGradient>
<linearGradient id="paint18_linear_85_29" x1="4014.18" y1="-770.74" x2="7014.18" y2="-770.74" gradientUnits="userSpaceOnUse">
<stop stop-color="#ECC4D7"/>
<stop offset="0.42" stop-color="#EFD4D1"/>
<stop offset="1" stop-color="#F2EAC9"/>
</linearGradient>
<linearGradient id="paint19_linear_85_29" x1="20427.8" y1="11944.5" x2="6219.94" y2="21393.5" gradientUnits="userSpaceOnUse">
<stop stop-color="#362958" stop-opacity="0.501"/>
<stop offset="1" stop-color="#34313D" stop-opacity="0"/>
</linearGradient>
<linearGradient id="paint20_linear_85_29" x1="4251" y1="-33821.6" x2="4134.47" y2="-33864.8" gradientUnits="userSpaceOnUse">
<stop/>
<stop offset="0.99" stop-opacity="0"/>
</linearGradient>
</defs>
</svg>
